<svg xmlns="http://www.w3.org/2000/svg" viewBox="0 0 1024 1024" role="img" aria-labelledby="title desc"><title id="title">Docus knowledge network</title><desc id="desc">A knowledge network icon with connected ideas and a central system.</desc><defs><linearGradient id="knowledge-gradient" x1="0" y1="0" x2="1" y2="1"><stop offset="0" stop-color="#b7c4ff"/><stop offset="0.52" stop-color="#8b9aff"/><stop offset="1" stop-color="#6366f1"/></linearGradient></defs><path d="M338.126665 604.964368c-8.303846-12.270513-21.794872-17.828205-35.699999-23.015384-0.326923-0.130769-0.762821 0-1.089744 0l-18.721794-5.928205c-1.176923 6.102564-1.74359 12.444872-3.857693 18.198717a10.047436 10.047436 0 0 1-7.802564 4.794872c-2.746154 0-7.824359-2.876923-7.846153-4.533333a89.358973 89.358973 0 0 1 2.55-19.920513c1.307692-5.797436 4.16282-11.246154 5.252564-17.043589 0.435897-2.179487-2.179487-7.235897-3.203847-7.214103-4.816667 0-11.071795-0.130769-14.101281 2.680769-7.541026 7.017949-13.55641 15.692307-20.312821 23.582051-1.874359 2.179487-4.16282 4.010256-7.955128 7.584616-2.005128-11.115384-4.751282-19.092307 2.615385-27.265385a140.402562 140.402562 0 0 0 14.929487-21.620512 12.423077 12.423077 0 0 0 1.329487-8.914103c-4.664103-15.25641-9.502564-30.643589-14.994872-45.76923-4.358974-11.725641-9.873077-22.993589-14.515384-34.610256-6.8-17.021795-12.924359-34.305128-20.029487-51.174358-7.214102-17.196154-15.866666-33.803846-22.797436-51.087179-4.882051-12.248718-7.628205-25.325641-11.899999-37.857692-5.034615-14.798718-11.00641-29.248718-15.888462-44.091025-3.269231-9.960256-5.405128-20.291025-7.976923-30.51282-2.789744-10.897436-5.514102-21.794872-8.717948-34.871794 11.246154-13.861538 28.551282-21.446154 48.842307-23.625641 9.546154-1.024359 19.048718-4.097436 28.529487-3.901282 13.403846 0.305128 27.897436 0 39.86282 5.034615 13.076923 5.492308 21.053846-2.419231 28.638461-7.344871 26.720512-17.435897 51.370512-37.988461 78.461537-54.770513 14.864102-9.219231 32.692307-13.948718 49.648718-19.484615 22.405128-7.344872 45.420512-12.183333 69.285896-10.897436 2.179487 0.130769 4.598718-0.479487 6.538462 0.261539 18.329487 7.301282 29.641025-2.419231 39.492307-15.932051 9.437179-13.076923 18.394872-26.393589 28.333333-38.925641 17.435897-21.794872 40.865384-29.967948 68.239742-25.696153 4.358974 0.675641 8.826923 4.358974 12.03077 7.693589 16.084615 16.91282 32.474359 33.520512 40.080768 56.666666 3.073077 9.415384 9.982051 17.544872 13.839744 26.785898 7.410256 17.76282 13.796154 35.961538 20.770512 53.920512 7.410256 19.026923 15.103846 37.923076 22.470513 56.971794 1.917949 4.925641 2.876923 10.221795 4.576923 15.25641 6.255128 18.503846 12.314102 37.051282 19.114102 55.380768 3.683333 9.873077 7.432051 20.269231 13.687179 28.485897 3.966667 5.230769 12.335897 8.717949 19.223077 9.698718 11.028205 1.591026 22.492307 0 33.694872 0.719231 3.138461 0.217949 6.058974 3.901282 9.066666 6.015385-2.46282 3.4-4.664103 9.480769-7.432051 9.764102-10.069231 0.958974-20.35641 0-30.51282-0.217949h-11.442308c1.961538 9.611538 6.538461 12.532051 14.667949 12.815385 6.058974 0.196154 12.008974 3.160256 17.85 6.538461-22.86282 8.216667-36.375641 24.344871-46.379487 44.330769-10.2 20.378205-18.961538 41.758974-31.602564 60.524358-10.265384 15.25641-23.582051 29.488461-42.478204 35.525641-6.538461 2.179487-7.541026 4.598718-4.228205 10.897435 15.779487 29.837179 30.992307 59.979486 46.510255 89.947435 8.042308 15.496154 16.95641 30.51282 24.235897 46.423077 5.1 11.071795 8.282051 23.058974 12.03077 34.741025 4.053846 12.66282 7.715385 25.45641 11.76923 38.11923 0.435897 1.373077 2.46282 2.179487 6.211539 5.470513 2.55-13.447436 5.230769-24.65 6.691025-36.005128 2.179487-16.19359-4.032051-33.302564 4.642308-48.689743 2.964103-5.252564 7.039744-11.355128 12.161538-13.665384 11.638461-5.252564 23.71282-9.785897 37.421794-6.342308 16.520513 4.141026 31.907692 9.785897 43.371795 23.037179a17.283333 17.283333 0 0 1 4.010256 7.170513 366.45897 366.45897 0 0 1 6.276923 99.580768c-1.046154 16.520513-6.276923 32.692307-9.785897 49.103846-2.288462 10.635897-3.639744 21.794872-7.671795 31.689743a193.974357 193.974357 0 0 1-20.291025 38.882051 329.10256 329.10256 0 0 1-34.283333 39.492307c-4.903846 4.991026-12.292308 9.589743-19.026923 10.417948-21.141025 2.59359-32.038461 15.910256-42.935897 32.692308-11.921795 18.525641-20.4 40.146153-39.426923 53.28846a137.002562 137.002562 0 0 1-24.584615 12.619231c-33.237179 14.101282-69.394871 7.017949-103.35128 13.905128-24.257692 4.903846-47.948717 2.637179-71.923076 3.225641-14.275641 0.370513-28.638461-2.876923-42.979487-4.358974-5.688461-0.632051-11.376923-1.285897-17.087179-1.7-21.097436-1.547436-42.739743-0.544872-63.205128-5.05641-25.914102-5.732051-52.024358-12.597436-73.514101-30.512821-18.547436-15.517949-29.66282-35.285897-39.448718-56.841024S274.921538 880.560518 273.918974 857.654108a665.81153 665.81153 0 0 1 2.179487-80.466665c1.111538-14.253846 6.080769-28.224359 9.546154-42.282051C289.415128 719.452828 293.011281 704.022059 297.631794 688.765649a176.3641 176.3641 0 0 1 11.158974-28.333333c9.153846-18.373077 19.092307-36.244871 29.335897-55.467948z m287.692304-557.251275l1.373077-2.55c-2.441026-6.080769-4.838461-12.183333-7.301282-18.264102-5.841026-14.319231-17.741025-18.438461-30.970512-10.897436-1.176923 0.697436-2.898718 0.566667-3.988462 1.351282-9.589743 6.908974-20.814102 12.488461-28.333332 21.25-12.684615 15.016666-22.688461 32.3-34.414103 48.188461-7.017949 9.524359-13.992308 20.748718-29.226922 13.46923-1.482051-0.697436-3.574359 0-5.405128-0.130769a240.419228 240.419228 0 0 0-74.102564 8.717949c-13.752564 4.032051-28.81282 6.364102-40.647435 13.730769-35.002564 21.794872-68.63205 45.76923-103.024358 68.67564a18.65641 18.65641 0 0 1-11.943589 2.179487c-16.476923-2.397436-32.692307-6.996154-49.3-7.911538-13.730769-0.762821-27.788461 1.939744-41.541025 4.16282-12.619231 2.157692-21.925641 13.883333-19.833333 25.303846 1.285897 7.017949 5.187179 13.55641 8.45641 21.642307a27.788461 27.788461 0 0 1 5.165385-4.358974c4.358974-2.179487 9.851282-6.538461 13.665384-5.514102 14.929487 4.032051 29.379487 9.851282 44.047436 14.864102a27.788461 27.788461 0 0 0 7.388461 1.089743c12.248718 0.741026 16.869231 8.173077 12.532051 19.833334-1.983333 5.317949-3.094872 10.897436-5.01282 16.280769-4.053846 11.180769-8.391026 22.252564-13.076923 34.871794-9.001282-7.955128-16.171795-13.905128-22.884615-20.31282-8.303846-7.867949-16.128205-16.215384-24.388462-24.105128-1.525641-1.460256-4.184615-1.721795-6.320512-2.528205-0.370513 1.765385-1.525641 3.857692-0.980769 5.274359 4.358974 11.071795 9.219231 21.947436 13.578204 32.997435q7.715385 19.615384 14.885898 39.361538c4.141026 11.507692 7.541026 23.320513 11.81282 34.871795 7.519231 20.291025 15.626923 40.342307 23.102564 60.633332 4.20641 11.376923 7.584615 23.058974 11.355128 34.588461 3.508974 10.897436 7.628205 21.424359 10.352564 32.408974s15.016666 16.455128 24.366666 9.807692 14.776923-5.383333 20.923077 5.862821c-1.067949 0.196154-2.332051 0-3.094872 0.610256a122.574357 122.574357 0 0 0-13.076923 10.505128c-0.784615 0.762821 1.242308 6.255128 1.808975 6.233334a125.691024 125.691024 0 0 0 16.629487-2.179488c4.991026-0.958974 9.894872-2.375641 14.842307-3.596153l2.702564 3.879487-17.784615 19.833333c11.81282 2.985897 22.296154 5.819231 32.888461 8.238461 15.474359 3.552564 30.905128 8.717949 46.597435 9.720513 25.303846 1.61282 50.803846 0.544872 76.282051 0.305128a61.156409 61.156409 0 0 0 12.423077-2.571795c5.514102-1.242308 10.897436-2.615385 16.498717-3.814102 6.124359-1.351282 12.357692-2.332051 18.438462-3.857692 8.478205-2.179487 16.891025-4.620513 25.282051-7.061539 9.611538-2.789744 19.615384-4.860256 28.72564-8.717948 13.273077-5.732051 25.957692-12.79359 38.882051-19.353846a326.182047 326.182047 0 0 0 74.102563-50.847436c31.36282-28.747436 58.846153-59.826922 75.780768-99.079486 3.4-7.889743 11.594872-14.297436 8.303847-25.216666-6.167949-20.465384-10.897436-41.410256-16.629487-61.941025s-10.788461-41.410256-18.416667-61.243589c-10.025641-26.153846-22.165384-51.283333-33.651282-76.761537q-17.566666-39.034615-35.699999-77.807692c-1.525641-3.291026-4.358974-5.971795-7.061538-9.589743-2.179487 3.661538-3.35641 4.664103-3.247436 5.470513q2.702564 17.85 5.710256 35.678204c0.392308 2.419231 1.220513 4.751282 1.569231 7.170513 0.784615 5.274359 1.373077 10.570513 2.048718 15.844872-6.298718-0.392308-13.273077 0.784615-18.765385-1.525641a163.65769 163.65769 0 0 1-29.292307-16.389744c-3.508974-2.419231-5.90641-7.802564-6.865385-12.248717-3.988461-18.591025 8.194872-32.496153 14.45-48.253846 3.814103-10.15641 7.432051-16.891025 19.288462-6.276923z m67.564102 809.832041a90.492307 90.492307 0 0 1 1.961539 10.374359c1.7 23.080769-4.358974 44.570512-12.096154 66.147435-6.647436 18.416666-16.302564 34.71923-27.221795 50.585897-0.871795 1.264103-1.547436 4.25-1.133333 4.511538a9.916667 9.916667 0 0 0 6.146154 2.048718c6.146154-1.329487 12.096154-3.552564 18.198718-5.121795 24.693589-6.385897 44.15641-20.574359 59.892307-40.255127 4.642308-5.841026 10.352564-11.246154 13.403846-17.828205a207.291023 207.291023 0 0 0 11.921794-33.346154c4.707692-17.435897 11.529487-34.871794 11.703846-52.438461 0.305128-30.51282-3.029487-61.221794-6.298718-91.691024-1.329487-12.423077-6.429487-24.453846-9.851282-36.658974-2.332051-8.41282-4.664103-16.847436-7.105128-25.238461-2.833333-9.720513-5.405128-19.615384-8.826923-29.052564-4.685897-13.076923-9.567949-26.001282-15.25641-38.576922q-12.205128-26.720512-25.914102-52.765384c-5.884615-11.202564-13.708974-21.402564-19.50641-32.692308-8.717949-16.760256-24.366666-23.734615-41.410256-16.10641s-29.117948 22.078205-39.623076 36.615384c-8.194872 11.333333-12.117949 25.696154-18.242308 38.576923-7.126923 14.973077-13.708974 30.51282-27.766666 40.603846-2.179487 1.634615-5.90641 3.574359-7.976923 2.833333a41.693589 41.693589 0 0 1-14.297436-8.151282c-18.242307-17.566666-42.739743-21.685897-65.166666-25.216666-33.978205-5.339744-69.024358-3.770513-103.591024-5.514103a16.258974 16.258974 0 0 0-16.585897 9.371795c-5.426923 9.807692-12.139743 19.026923-16.498718 29.292307-5.01282 12.074359-8.042308 24.998718-11.81282 37.596154-2.59359 8.717949-5.252564 17.435897-7.388462 26.284615-3.508974 14.646154-6.691026 29.357692-9.894871 44.047435-0.523077 2.441026 0.305128 5.405128-0.762821 7.475641-7.214102 14.210256-6.538461 29.466666-5.666667 44.483333 1.787179 32.583333-4.010256 65.27564 5.710257 97.880768 6.276923 21.119231 12.532051 41.410256 26.851282 58.344871a71.617948 71.617948 0 0 0 40.473076 24.911538c12.924359 2.55 26.764102 0.719231 40.189743 0.370513 3.31282 0 6.538461-2.005128 9.153846-2.855128-8.238461-15.866666-15.844872-29.924359-22.81923-44.287179a55.141025 55.141025 0 0 1-6.03718-18.329487 343.138457 343.138457 0 0 1-1.046154-38.467949c0-5.405128 2.332051-10.744872 3.574359-16.10641l5.14359 0.370513c1.089744 8.870513 1.874359 17.80641 3.35641 26.633333 1.917949 11.616667 3.116667 23.582051 6.996154 34.544872 3.421795 9.698718 10.570513 18.024359 15.25641 27.352563 15.25641 30.643589 58.039743 42.717948 87.33205 20.378205 20.138461-15.25641 29.270512-37.247435 37.31282-62.376922 5.14359 12.532051 10.744872 23.516666 14.188462 35.155128 9.982051 33.825641 52.307692 45.76923 77.458973 21.402563 29.771794-28.725641 44.265384-64.665384 53.637179-105.116665z m92.867948 34.283333c3.269231 0 4.860256 0.435897 6.058974 0 27.025641-11.311538 45.00641-32.365384 58.301281-57.276922 7.802564-14.624359 13.076923-30.708974 18.482051-46.510256s12.226923-30.861538 10.352564-48.166666c-0.85-7.889743 0-15.953846-0.196153-23.974359-0.588462-14.45 0.937179-28.507692-5.775641-43.001281-8.194872-17.697436-17.108974-33.258974-34.566667-42.935897-9.35-5.165385-28.616666 0.457692-29.880769 9.742307-2.179487 15.539743-3.4 31.210256-4.576923 46.880769-0.741026 10.069231 0 20.291025-1.089743 30.316666-1.155128 10.897436-4.358974 21.576923-5.339744 32.452564-0.980769 10.439743 0.370513 21.075641-0.566666 31.515384-1.482051 16.237179-4.358974 32.365384-6.080769 48.580769-1.242308 11.420513-1.634615 22.928205-2.55 34.392307-0.675641 9.153846-1.61282 18.307692-2.506411 27.984615z m-270.779484 99.624358c14.45 1.961538 26.829487 3.617949 39.230769 5.383333 8.151282 1.155128 13.839743-1.917949 17.283333-9.197436-3.596154-2.658974-8.194872-4.358974-9.873077-7.693589-4.228205-8.151282-6.865385-17.108974-10.701282-25.478205a12.946154 12.946154 0 0 0-6.538461-5.971795c-1.307692-0.523077-4.664103 1.634615-5.797436 3.4-5.165385 8.107692-9.873077 16.520513-14.776923 24.824359-2.702564 4.598718-5.492308 9.175641-8.826923 14.733333z m61.941025-400.45897c-5.405128-6.298718-9.110256-12.75-14.646154-16.520512s-13.64359 2.179487-13.076923 8.717948c0.632051 7.998718 0.697436 16.041025 1.220513 23.974359 0.152564 2.484615 0.196154 6.255128 1.634615 7.061538 2.179487 1.176923 6.778205 1.373077 7.955129 0 5.557692-6.669231 10.352564-14.035897 16.91282-23.233333z"></path><path d="M645.434354 307.355397c-3.007692 8.935897-5.492308 18.089743-9.30641 26.655128-1.155128 2.571795-6.908974 5.710256-8.979487 4.838462-13.382051-5.688461-27.025641-11.00641-33.673077-26.153846-4.358974-9.960256-1.852564-28.921795 6.124359-33.455128 9.284615-5.274359 36.223076-0.632051 41.410256 8.521795 2.898718 5.121795 2.179487 12.357692 2.942308 18.634615zM338.780512 408.265653c0-3.988461-0.915385-8.260256 0.217948-11.9 1.7-5.514102 3.792308-13.905128 7.60641-15.103846a27.941025 27.941025 0 0 1 19.985898 2.746154 69.743589 69.743589 0 0 1 19.811538 17.544871c6.75641 8.565385 4.903846 25.347436-2.571795 33.041025a14.471795 14.471795 0 0 1-8.478205 3.312821c-5.383333 0.523077-10.897436 0.152564-16.302564 0.152564-16.498718 0-20.138461-3.596154-20.26923-20.007692v-9.785897zM549.820252 393.532319c5.1 9.611538 1.351282 26.153846-9.829487 31.144872-13.076923 5.710256-24.867948 14.275641-40.71282 13.948718-10.897436-0.217949-21.794872 4.794872-32.692307 7.148717-2.048718 0.435897-4.358974-0.741026-6.669231-1.176923 0.544872-1.961538 0.501282-4.467949 1.721795-5.81923 11.725641-12.837179 26.35-19.615384 43.197436-24.475641 15.321795-4.380769 29.401282-13.360256 44.984614-20.770513z"></path></svg>
